<svg width="287" height="60" viewBox="0 0 287 60" fill="none" xmlns="http://www.w3.org/2000/svg">
<rect y="4.15417" width="5.53886" height="55.3886" rx="2.76943" fill="#9440FF"/>
<rect x="22.1554" y="4.15417" width="5.53886" height="55.3886" rx="2.76943" fill="#9440FF"/>
<rect x="44.3109" y="4.15417" width="5.53886" height="55.3886" rx="2.76943" fill="#9440FF"/>
<rect x="11.0778" width="5.53886" height="55.3886" rx="2.76943" fill="#1E2772"/>
<rect x="33.2332" width="5.53886" height="55.3886" rx="2.76943" fill="#1E2772"/>
<path d="M78.192 21.696V24.064H72.112V44H69.2V24.064H63.088V21.696H78.192ZM80.6885 35.168C80.6885 33.376 81.0512 31.808 81.7765 30.464C82.5018 29.0987 83.4938 28.0427 84.7525 27.296C86.0325 26.5493 87.4512 26.176 89.0085 26.176C90.5445 26.176 91.8778 26.5067 93.0085 27.168C94.1392 27.8293 94.9818 28.6613 95.5365 29.664V26.464H98.4805V44H95.5365V40.736C94.9605 41.76 94.0965 42.6133 92.9445 43.296C91.8138 43.9573 90.4912 44.288 88.9765 44.288C87.4192 44.288 86.0112 43.904 84.7525 43.136C83.4938 42.368 82.5018 41.2907 81.7765 39.904C81.0512 38.5173 80.6885 36.9387 80.6885 35.168ZM95.5365 35.2C95.5365 33.8773 95.2698 32.7253 94.7365 31.744C94.2032 30.7627 93.4778 30.016 92.5605 29.504C91.6645 28.9707 90.6725 28.704 89.5845 28.704C88.4965 28.704 87.5045 28.96 86.6085 29.472C85.7125 29.984 84.9978 30.7307 84.4645 31.712C83.9312 32.6933 83.6645 33.8453 83.6645 35.168C83.6645 36.512 83.9312 37.6853 84.4645 38.688C84.9978 39.6693 85.7125 40.4267 86.6085 40.96C87.5045 41.472 88.4965 41.728 89.5845 41.728C90.6725 41.728 91.6645 41.472 92.5605 40.96C93.4778 40.4267 94.2032 39.6693 94.7365 38.688C95.2698 37.6853 95.5365 36.5227 95.5365 35.2ZM109.61 44.288C108.266 44.288 107.06 44.064 105.994 43.616C104.927 43.1467 104.084 42.5067 103.466 41.696C102.847 40.864 102.506 39.9147 102.442 38.848H105.45C105.535 39.7227 105.94 40.4373 106.666 40.992C107.412 41.5467 108.383 41.824 109.578 41.824C110.687 41.824 111.562 41.5787 112.202 41.088C112.842 40.5973 113.162 39.9787 113.162 39.232C113.162 38.464 112.82 37.8987 112.138 37.536C111.455 37.152 110.399 36.7787 108.97 36.416C107.668 36.0747 106.602 35.7333 105.77 35.392C104.959 35.0293 104.255 34.5067 103.658 33.824C103.082 33.12 102.794 32.2027 102.794 31.072C102.794 30.176 103.06 29.3547 103.594 28.608C104.127 27.8613 104.884 27.2747 105.866 26.848C106.847 26.4 107.967 26.176 109.226 26.176C111.167 26.176 112.735 26.6667 113.93 27.648C115.124 28.6293 115.764 29.9733 115.85 31.68H112.938C112.874 30.7627 112.5 30.0267 111.818 29.472C111.156 28.9173 110.26 28.64 109.13 28.64C108.084 28.64 107.252 28.864 106.634 29.312C106.015 29.76 105.706 30.3467 105.706 31.072C105.706 31.648 105.887 32.128 106.25 32.512C106.634 32.8747 107.103 33.1733 107.658 33.408C108.234 33.6213 109.023 33.8667 110.026 34.144C111.284 34.4853 112.308 34.8267 113.098 35.168C113.887 35.488 114.559 35.9787 115.114 36.64C115.69 37.3013 115.988 38.1653 116.01 39.232C116.01 40.192 115.743 41.056 115.21 41.824C114.676 42.592 113.919 43.2 112.938 43.648C111.978 44.0747 110.868 44.288 109.61 44.288ZM129.912 44L123.032 36.256V44H120.12V20.32H123.032V34.24L129.784 26.464H133.848L125.592 35.2L133.88 44H129.912ZM167.744 21.856V44H164.832V27.488L157.472 44H155.424L148.032 27.456V44H145.12V21.856H148.256L156.448 40.16L164.64 21.856H167.744ZM171.595 35.168C171.595 33.376 171.957 31.808 172.683 30.464C173.408 29.0987 174.4 28.0427 175.659 27.296C176.939 26.5493 178.357 26.176 179.915 26.176C181.451 26.176 182.784 26.5067 183.915 27.168C185.045 27.8293 185.888 28.6613 186.443 29.664V26.464H189.387V44H186.443V40.736C185.867 41.76 185.003 42.6133 183.851 43.296C182.72 43.9573 181.397 44.288 179.883 44.288C178.325 44.288 176.917 43.904 175.659 43.136C174.4 42.368 173.408 41.2907 172.683 39.904C171.957 38.5173 171.595 36.9387 171.595 35.168ZM186.443 35.2C186.443 33.8773 186.176 32.7253 185.643 31.744C185.109 30.7627 184.384 30.016 183.467 29.504C182.571 28.9707 181.579 28.704 180.491 28.704C179.403 28.704 178.411 28.96 177.515 29.472C176.619 29.984 175.904 30.7307 175.371 31.712C174.837 32.6933 174.571 33.8453 174.571 35.168C174.571 36.512 174.837 37.6853 175.371 38.688C175.904 39.6693 176.619 40.4267 177.515 40.96C178.411 41.472 179.403 41.728 180.491 41.728C181.579 41.728 182.571 41.472 183.467 40.96C184.384 40.4267 185.109 39.6693 185.643 38.688C186.176 37.6853 186.443 36.5227 186.443 35.2ZM202.852 26.144C204.985 26.144 206.713 26.7947 208.036 28.096C209.358 29.376 210.02 31.232 210.02 33.664V44H207.14V34.08C207.14 32.3307 206.702 30.9973 205.828 30.08C204.953 29.1413 203.758 28.672 202.244 28.672C200.708 28.672 199.481 29.152 198.564 30.112C197.668 31.072 197.22 32.4693 197.22 34.304V44H194.308V26.464H197.22V28.96C197.796 28.064 198.574 27.3707 199.556 26.88C200.558 26.3893 201.657 26.144 202.852 26.144ZM213.689 35.168C213.689 33.376 214.051 31.808 214.777 30.464C215.502 29.0987 216.494 28.0427 217.753 27.296C219.033 26.5493 220.451 26.176 222.009 26.176C223.545 26.176 224.878 26.5067 226.009 27.168C227.139 27.8293 227.982 28.6613 228.537 29.664V26.464H231.481V44H228.537V40.736C227.961 41.76 227.097 42.6133 225.945 43.296C224.814 43.9573 223.491 44.288 221.977 44.288C220.419 44.288 219.011 43.904 217.753 43.136C216.494 42.368 215.502 41.2907 214.777 39.904C214.051 38.5173 213.689 36.9387 213.689 35.168ZM228.537 35.2C228.537 33.8773 228.27 32.7253 227.737 31.744C227.203 30.7627 226.478 30.016 225.561 29.504C224.665 28.9707 223.673 28.704 222.585 28.704C221.497 28.704 220.505 28.96 219.609 29.472C218.713 29.984 217.998 30.7307 217.465 31.712C216.931 32.6933 216.665 33.8453 216.665 35.168C216.665 36.512 216.931 37.6853 217.465 38.688C217.998 39.6693 218.713 40.4267 219.609 40.96C220.505 41.472 221.497 41.728 222.585 41.728C223.673 41.728 224.665 41.472 225.561 40.96C226.478 40.4267 227.203 39.6693 227.737 38.688C228.27 37.6853 228.537 36.5227 228.537 35.2ZM243.634 26.176C245.148 26.176 246.471 26.5067 247.602 27.168C248.754 27.8293 249.607 28.6613 250.162 29.664V26.464H253.106V44.384C253.106 45.984 252.764 47.4027 252.082 48.64C251.399 49.8987 250.418 50.88 249.138 51.584C247.879 52.288 246.407 52.64 244.722 52.64C242.418 52.64 240.498 52.096 238.962 51.008C237.426 49.92 236.519 48.4373 236.242 46.56H239.122C239.442 47.6267 240.103 48.48 241.106 49.12C242.108 49.7813 243.314 50.112 244.722 50.112C246.322 50.112 247.623 49.6107 248.626 48.608C249.65 47.6053 250.162 46.1973 250.162 44.384V40.704C249.586 41.728 248.732 42.5813 247.602 43.264C246.471 43.9467 245.148 44.288 243.634 44.288C242.076 44.288 240.658 43.904 239.378 43.136C238.119 42.368 237.127 41.2907 236.402 39.904C235.676 38.5173 235.314 36.9387 235.314 35.168C235.314 33.376 235.676 31.808 236.402 30.464C237.127 29.0987 238.119 28.0427 239.378 27.296C240.658 26.5493 242.076 26.176 243.634 26.176ZM250.162 35.2C250.162 33.8773 249.895 32.7253 249.362 31.744C248.828 30.7627 248.103 30.016 247.186 29.504C246.29 28.9707 245.298 28.704 244.21 28.704C243.122 28.704 242.13 28.96 241.234 29.472C240.338 29.984 239.623 30.7307 239.09 31.712C238.556 32.6933 238.29 33.8453 238.29 35.168C238.29 36.512 238.556 37.6853 239.09 38.688C239.623 39.6693 240.338 40.4267 241.234 40.96C242.13 41.472 243.122 41.728 244.21 41.728C245.298 41.728 246.29 41.472 247.186 40.96C248.103 40.4267 248.828 39.6693 249.362 38.688C249.895 37.6853 250.162 36.5227 250.162 35.2ZM274.027 34.56C274.027 35.1147 273.995 35.7013 273.931 36.32H259.915C260.021 38.048 260.608 39.4027 261.675 40.384C262.763 41.344 264.075 41.824 265.611 41.824C266.869 41.824 267.915 41.536 268.747 40.96C269.6 40.3627 270.197 39.5733 270.539 38.592H273.675C273.205 40.2773 272.267 41.6533 270.859 42.72C269.451 43.7653 267.701 44.288 265.611 44.288C263.947 44.288 262.453 43.9147 261.131 43.168C259.829 42.4213 258.805 41.3653 258.059 40C257.312 38.6133 256.939 37.0133 256.939 35.2C256.939 33.3867 257.301 31.7973 258.027 30.432C258.752 29.0667 259.765 28.0213 261.067 27.296C262.389 26.5493 263.904 26.176 265.611 26.176C267.275 26.176 268.747 26.5387 270.027 27.264C271.307 27.9893 272.288 28.992 272.971 30.272C273.675 31.5307 274.027 32.96 274.027 34.56ZM271.019 33.952C271.019 32.8427 270.773 31.8933 270.283 31.104C269.792 30.2933 269.12 29.6853 268.267 29.28C267.435 28.8533 266.507 28.64 265.483 28.64C264.011 28.64 262.752 29.1093 261.707 30.048C260.683 30.9867 260.096 32.288 259.947 33.952H271.019ZM280.782 29.312C281.294 28.3093 282.02 27.5307 282.958 26.976C283.918 26.4213 285.081 26.144 286.446 26.144V29.152H285.678C282.414 29.152 280.782 30.9227 280.782 34.464V44H277.87V26.464H280.782V29.312Z" fill="black"/>
</svg>
